HIERARCHY
ROOT root
{
	OFFSET 0.000000 0.000000 0.000000
	CHANNELS 6 Xposition Yposition Zposition Zrotation Yrotation Xrotation
	JOINT lhip
	{
		OFFSET 0.058581 -0.082280 -0.017664
		CHANNELS 3 Zrotation Yrotation Xrotation
		JOINT lknee
		{
			OFFSET 0.043451 -0.386469 0.008037
			CHANNELS 3 Zrotation Yrotation Xrotation
			JOINT lankle
			{
				OFFSET -0.014790 -0.426874 -0.037428
				CHANNELS 3 Zrotation Yrotation Xrotation
				JOINT ltoe
				{
					OFFSET 0.041054 -0.060286 0.122042
					CHANNELS 3 Zrotation Yrotation Xrotation
					End Site
					{
						OFFSET 0.000000 0.000000 0.000000
					}
				}
			}
		}
	}
	JOINT rhip
	{
		OFFSET -0.060310 -0.090513 -0.013543
		CHANNELS 3 Zrotation Yrotation Xrotation
		JOINT rknee
		{
			OFFSET -0.043257 -0.383688 -0.004843
			CHANNELS 3 Zrotation Yrotation Xrotation
			JOINT rankle
			{
				OFFSET 0.019056 -0.420046 -0.034562
				CHANNELS 3 Zrotation Yrotation Xrotation
				JOINT rtoe
				{
					OFFSET -0.034840 -0.062106 0.130323
					CHANNELS 3 Zrotation Yrotation Xrotation
					End Site
					{
						OFFSET 0.000000 0.000000 0.000000
					}
				}
			}
		}
	}
	JOINT lowerback
	{
		OFFSET 0.004439 0.124404 -0.038385
		CHANNELS 3 Zrotation Yrotation Xrotation
		JOINT upperback
		{
			OFFSET 0.004488 0.137956 0.026820
			CHANNELS 3 Zrotation Yrotation Xrotation
			JOINT chest
			{
				OFFSET -0.002265 0.056032 0.002855
				CHANNELS 3 Zrotation Yrotation Xrotation
				JOINT lowerneck
				{
					OFFSET -0.013390 0.211636 -0.033468
					CHANNELS 3 Zrotation Yrotation Xrotation
					JOINT upperneck
					{
						OFFSET 0.010113 0.088937 0.050410
						CHANNELS 3 Zrotation Yrotation Xrotation
						End Site
						{
							OFFSET 0.000000 0.000000 0.000000
						}
					}
				}
				JOINT lclavicle
				{
					OFFSET 0.071702 0.114000 -0.018898
					CHANNELS 3 Zrotation Yrotation Xrotation
					JOINT lshoulder
					{
						OFFSET 0.122921 0.045205 -0.019046
						CHANNELS 3 Zrotation Yrotation Xrotation
						JOINT lelbow
						{
							OFFSET 0.255332 -0.015649 -0.022946
							CHANNELS 3 Zrotation Yrotation Xrotation
							JOINT lwrist
							{
								OFFSET 0.265709 0.012698 -0.007375
								CHANNELS 3 Zrotation Yrotation Xrotation
								End Site
								{
									OFFSET 0.000000 0.000000 0.000000
								}
							}
						}
					}
				}
				JOINT rclavicle
				{
					OFFSET -0.082954 0.112472 -0.023707
					CHANNELS 3 Zrotation Yrotation Xrotation
					JOINT rshoulder
					{
						OFFSET -0.113228 0.046853 -0.008472
						CHANNELS 3 Zrotation Yrotation Xrotation
						JOINT relbow
						{
							OFFSET -0.260127 -0.014369 -0.031269
							CHANNELS 3 Zrotation Yrotation Xrotation
							JOINT rwrist
							{
								OFFSET -0.269108 0.006794 -0.006027
								CHANNELS 3 Zrotation Yrotation Xrotation
								End Site
								{
									OFFSET 0.000000 0.000000 0.000000
								}
							}
						}
					}
				}
			}
		}
	}
}
MOTION
Frames: 17
Frame Time: 0.033333
0.095331 0.317225 1.010281 3.268689 2.658675 95.023524 3.047417 3.507248 15.261644 -8.229990 -7.563970 28.717528 -6.720119 14.547630 15.530231 0.000000 -0.000000 0.000000 -3.028936 12.553847 -40.923519 2.798641 -13.579793 20.478207 6.745144 -12.063301 -17.699934 0.000000 -0.000000 0.000000 -2.023760 -13.553048 10.776790 1.904758 -1.070889 -2.013629 3.284424 -6.605204 -6.901259 -4.278928 7.269769 4.429317 -0.218994 16.935325 -1.620841 -20.868000 -1.469301 2.543928 -51.577126 -26.603939 19.113655 153.622937 -74.624553 -131.637191 26.513896 -11.585458 -20.993749 19.088424 -7.292898 3.208006 43.191650 -14.592019 15.469057 3.160295 26.199521 8.425303 -13.562420 12.005806 -2.894468 
0.095397 0.214003 0.993702 2.120044 0.142541 93.257698 1.327043 4.371061 10.507810 -7.418586 -0.975399 44.460380 -2.783658 17.332859 9.668898 0.000000 -0.000000 0.000000 -1.685544 8.762584 -34.398773 2.972272 -11.046698 23.094443 7.278596 -8.043581 -12.349630 0.000000 -0.000000 0.000000 -2.480461 -11.286721 12.184432 0.515305 -1.693544 -4.693897 1.883549 -5.928047 -5.256652 -5.053168 5.671753 3.027819 -0.297375 17.192501 -1.607866 -23.360842 -0.349350 2.409891 -50.383670 -21.204687 19.540549 161.142852 -76.674814 -142.907032 27.032667 -7.719393 -23.429682 20.882142 -6.736653 1.901562 42.376675 -13.954240 15.719741 5.186431 27.813230 7.638923 -16.659508 10.969333 -2.856426 
0.093552 0.116382 0.973115 0.471617 0.204195 89.671957 3.741912 7.202106 5.662914 -3.348785 2.097523 60.034240 0.828962 17.629378 -2.679859 0.000000 -0.000000 0.000000 0.525274 3.273154 -30.582609 3.511042 -10.359646 36.734597 2.058397 -3.016080 -15.685012 0.000000 -0.000000 0.000000 -0.204259 -8.735001 18.533714 -0.916491 -0.853633 -11.545568 0.681914 -4.689292 -0.026860 -5.604370 5.966148 -4.404053 -1.487269 13.810608 2.890944 -25.765010 1.405779 -0.828436 -50.169221 -15.413070 18.125020 170.252052 -82.611746 -152.308175 22.217214 -6.867185 -24.040896 23.802485 -4.974242 -1.358208 41.227973 -11.776589 13.497789 7.117598 30.417709 8.716243 -20.172781 11.403157 -3.304975 
0.090799 0.028700 0.960906 -3.497931 1.346540 89.481286 5.830678 4.900902 -7.329437 0.264045 7.639727 73.888547 3.641157 16.253544 -11.160451 0.000000 -0.000000 0.000000 1.810438 4.865053 -26.286357 5.783773 -8.722463 40.854154 2.454636 -3.432396 -19.017675 0.000000 -0.000000 0.000000 2.591225 -5.220572 21.759093 -1.050264 1.700992 -13.686136 -0.538529 -2.888901 1.490544 -6.187900 4.895318 -9.705908 -3.922469 10.558917 3.819545 -26.971861 5.779409 -3.104995 -51.032142 -11.249528 16.561167 -148.055649 -88.974286 170.061627 18.979956 -9.411043 -16.743404 26.170986 -3.951081 -3.067052 41.839398 -4.727590 14.386717 2.703821 34.912964 6.035257 -17.204146 11.024970 -2.846631 
0.087791 -0.056258 0.960469 -5.709124 1.591715 89.680717 7.266270 1.996314 -22.531800 1.474983 10.114238 80.137945 1.821147 15.918853 -21.114605 0.000000 -0.000000 0.000000 2.579205 1.899809 -17.486866 7.801391 -4.909122 37.077677 2.206538 -1.918184 -22.014214 0.000000 -0.000000 0.000000 3.115140 -1.676694 24.947613 -1.226465 1.752309 -14.606583 -0.539212 -0.840153 1.024306 -6.981927 3.755676 -11.615049 -3.953322 7.666311 1.730425 -24.668170 8.807073 -1.526106 -52.822572 -5.356322 11.775084 -117.985101 -87.695733 141.730125 19.121067 -8.835870 -18.447318 24.218883 -1.598096 -1.412008 46.923075 3.813480 11.023923 -1.866360 41.741821 2.509266 -19.384246 10.388018 -4.489453 
0.083675 -0.145886 0.965363 -7.281633 0.109332 90.732491 8.108786 -2.184949 -35.715939 1.461234 14.258205 76.313190 2.989565 15.556823 -21.010209 0.000000 -0.000000 0.000000 2.510728 -0.537937 -10.451719 7.676238 1.845762 35.314833 3.364138 -3.286231 -23.876312 0.000000 -0.000000 0.000000 0.716101 3.116931 23.652987 -0.613616 1.095044 -14.518340 -0.573382 0.776309 2.306266 -6.120804 3.139232 -12.739961 -3.324495 4.269230 1.765893 -22.425608 11.649605 -0.956848 -52.333228 0.499504 9.783873 -137.230230 -85.759966 159.312937 21.415684 -7.248374 -21.050664 23.272705 -0.147863 -2.668847 50.442044 9.192444 11.666868 -11.041650 52.006805 -6.428367 -17.845668 8.278034 -6.472660 
0.080749 -0.241210 0.975560 -7.387575 -1.752430 92.714659 8.482273 -5.905586 -45.339594 3.848523 17.822495 64.153093 3.460980 16.179347 -21.805961 0.000000 -0.000000 0.000000 0.905134 -3.491456 -2.264460 5.601399 6.534605 29.616454 6.092465 -2.745684 -21.244097 0.000000 -0.000000 0.000000 -2.110190 7.481164 18.996434 -0.017232 -0.191424 -13.039049 -0.748138 1.922652 2.908612 -4.904687 2.709000 -10.793433 -3.100852 0.502878 1.277625 -19.863174 14.825418 -0.652662 -50.200316 4.114544 9.966713 -121.778664 -84.884070 142.421743 23.665498 -6.949269 -21.295035 22.946785 -1.020649 -4.950270 51.884383 12.710064 14.301116 -20.545131 61.287869 -15.079126 -18.058897 8.326254 -8.595246 
0.079508 -0.343020 0.987963 -6.783117 -3.441136 94.785281 7.934326 -10.080992 -48.774572 2.649894 19.531107 42.594633 4.862761 16.926734 -20.437813 0.000000 -0.000000 0.000000 -1.868351 -4.356319 6.477988 4.091107 7.164963 21.553243 9.480181 -3.187932 -11.695285 0.000000 -0.000000 0.000000 -4.611173 10.494947 12.939670 0.074344 -1.293824 -10.129470 -1.277055 2.845532 2.327228 -4.436329 1.601512 -7.191436 -2.175770 -2.666403 -0.016552 -17.367922 17.228012 -0.027189 -47.325185 5.628915 10.224529 -103.893800 -83.783144 122.671608 23.537172 -7.542796 -19.041334 22.275487 -2.754133 -6.048906 52.454669 14.023962 17.161299 -32.196739 69.730111 -24.229198 -18.760655 8.622116 -7.784734 
0.076927 -0.448473 1.000705 -6.131277 -3.731739 95.995181 7.173558 -13.405476 -46.156525 -2.128587 13.719073 17.056756 3.755248 16.189309 -18.290607 0.000000 -0.000000 0.000000 -3.487536 -5.349870 12.817390 3.707669 5.308855 17.630338 13.534098 -5.400688 3.528680 0.000000 -0.000000 0.000000 -6.003391 12.805176 7.742820 0.026571 -2.158950 -6.403867 -1.523923 3.365729 0.192714 -4.142799 0.706121 -3.638956 -0.977506 -5.312957 -0.723557 -15.969833 17.532865 0.451641 -44.505015 6.941246 10.689944 -88.191222 -83.522320 106.021741 24.095603 -8.215592 -18.435391 21.937512 -3.797965 -6.731688 51.706559 12.586368 18.315089 -44.841999 76.567535 -33.823449 -19.775821 10.573675 -7.162053 
0.073472 -0.555280 1.010950 -5.441323 -2.610800 96.445135 5.556972 -13.064921 -43.690993 -2.851070 7.158819 6.608950 3.587477 14.626186 -18.154915 0.000000 -0.000000 0.000000 -4.058249 -7.144235 15.348581 3.978481 2.987276 19.974986 14.991835 -8.278317 17.677915 0.000000 -0.000000 0.000000 -6.514925 13.854392 3.157758 0.176915 -2.790755 -1.860266 -1.257501 3.046906 -2.775648 -3.790877 -0.773923 -1.466018 0.540901 -5.126955 -0.925476 -16.827753 16.415586 0.828362 -41.262791 9.053554 10.545546 -84.664513 -84.524567 100.703937 25.686321 -8.093321 -16.377494 22.803451 -3.876235 -6.346386 50.098527 10.011207 18.493922 -51.240026 80.507076 -41.721371 -20.298825 10.840585 -8.974995 
0.069322 -0.659432 1.011638 -5.184466 -1.251695 95.963608 4.288050 -12.101167 -40.795187 -3.456077 3.015998 8.625022 4.196296 13.057739 -20.393330 0.000000 -0.000000 0.000000 -2.930463 -7.273047 14.503702 4.545167 2.504946 29.996761 12.347172 -11.426488 17.705552 0.000000 -0.000000 0.000000 -7.327727 13.198771 1.243727 1.138633 -2.640515 0.363168 -0.709320 2.496056 -4.876224 -2.690200 -1.860716 -1.439148 1.202923 -3.715089 0.323419 -18.296456 15.544391 0.248292 -38.902334 9.190831 10.082272 -82.395379 -84.478338 97.771548 27.274730 -7.569140 -16.608387 24.385243 -3.790756 -5.008701 48.233718 7.954411 18.410400 -34.440261 81.164079 -27.565494 -20.931616 10.170111 -11.254158 
0.064393 -0.763031 0.998495 -4.771311 -0.014325 94.348279 4.941656 -15.060786 -33.781112 -4.651996 0.232558 9.947825 3.188910 12.393571 -19.152594 0.000000 -0.000000 0.000000 -1.761611 -6.009648 12.717321 4.076938 -1.606358 42.181461 9.361990 -15.601759 11.910460 0.000000 -0.000000 0.000000 -8.104697 11.025714 2.632967 2.481133 -2.026959 -0.873055 -0.023444 1.985182 -5.556757 -0.885861 -2.358644 -0.720466 1.172410 -2.037964 1.228246 -19.642678 14.663062 0.243807 -38.053055 7.223819 10.815651 -75.205630 -86.295260 89.795510 26.550113 -7.680120 -15.621266 25.440108 -3.849730 -4.201971 47.047453 4.914702 19.547663 -13.281645 77.224139 -8.018008 -21.189533 10.268568 -10.687018 
0.062830 -0.860502 0.975769 -3.653788 -0.024282 93.098258 0.214254 -9.721397 -30.411432 -6.709560 -1.760311 16.432260 11.860136 9.827233 -10.496097 0.000000 -0.000000 0.000000 -3.156714 -5.544931 8.151594 1.845622 -6.810857 55.048966 6.251290 -17.079115 4.499409 0.000000 -0.000000 0.000000 -9.943133 7.239239 5.557038 3.651676 -1.471907 -4.732234 0.910210 1.314574 -2.955303 0.778313 -3.917344 -0.665399 1.880767 1.738919 0.504260 -23.350548 13.769827 -0.672077 -37.146080 2.177074 12.384507 -8.612341 -88.728653 21.230457 27.128543 -7.819964 -11.898742 27.080544 -3.777689 -7.193391 45.623241 1.587826 22.325527 -8.051404 69.761064 -4.852864 -13.213307 11.442881 -4.131120 
0.062736 -0.950061 0.958974 -1.420578 -0.194798 90.455180 -2.807571 -8.996276 -28.307531 -8.324609 -3.446854 30.301160 9.856334 12.737172 -18.482117 0.000000 -0.000000 0.000000 -3.911625 -4.824047 1.369978 -0.726407 -9.173767 67.862507 7.194400 -17.296985 -4.919269 0.000000 -0.000000 0.000000 -10.551559 3.596985 14.912933 3.542960 -2.195896 -12.863224 1.963131 0.267367 0.678855 3.529850 -1.791020 -6.806349 2.169475 3.397557 5.370100 -26.052170 10.547953 -3.571228 -38.055793 -1.616984 12.905083 37.540508 -86.562450 -22.776680 27.973178 -8.469428 -13.157806 27.289265 -2.790991 -10.216146 46.563397 -2.418313 22.981006 -5.708905 59.251840 -1.609140 -11.325948 10.475208 -0.434979 
0.061319 -1.033370 0.960464 0.110778 -1.243702 90.236563 -3.811711 -10.630619 -21.782028 -10.939170 -3.341397 30.262832 9.360075 14.094053 -21.586323 0.000000 -0.000000 0.000000 -5.392381 -2.434642 -11.571330 -1.914135 -11.309324 78.125417 7.713483 -15.550814 -10.120235 0.000000 -0.000000 0.000000 -10.148059 1.644719 18.045911 2.325770 -2.542116 -12.588547 0.970970 -1.975333 -0.715481 4.304736 1.057954 -6.343639 3.199975 3.307313 2.628183 -24.516493 5.719103 -0.962558 -40.651559 -8.547356 12.684561 52.205911 -83.316031 -34.659169 27.138127 -9.361041 -11.422272 26.257310 -3.332639 -5.657821 51.484063 -1.819688 20.008176 -6.643783 46.610915 -2.710880 -13.372911 10.971481 -0.335408 
0.059746 -1.118066 0.968634 0.201261 -0.246097 89.344839 -4.410311 -5.033765 -11.575661 -12.080821 -10.293684 26.689673 8.612134 15.135506 -22.483309 0.000000 -0.000000 0.000000 -4.474504 -2.123989 -23.660599 -0.891145 -10.494666 80.192909 8.082530 -14.086881 -11.456893 0.000000 -0.000000 0.000000 -7.914868 -1.162553 20.209426 1.204437 -1.571825 -12.839935 1.378289 -3.385636 -0.650140 1.963652 1.873938 -6.290009 3.981390 5.592460 2.733002 -22.536651 0.341030 -0.557587 -43.604283 -12.812888 12.631967 82.696323 -83.187223 -63.090156 25.002425 -8.584882 -12.047233 22.524678 -1.949981 -3.999336 53.428371 -7.279725 17.072776 -3.468904 43.986994 0.021258 -8.958088 8.613568 -2.566946 
0.058687 -1.207365 0.981318 0.199294 2.025834 88.557497 -2.896114 1.246366 -1.327355 -10.447410 -18.093589 23.159205 4.919608 14.889866 -21.401783 0.000000 -0.000000 0.000000 -2.738581 -0.930554 -32.236161 -2.642103 -12.786325 74.536940 10.022269 -11.693948 -14.274210 0.000000 -0.000000 0.000000 -4.447978 -4.798640 21.019342 0.466576 -0.209852 -13.831866 1.896240 -3.824976 0.506202 -0.121585 3.073040 -5.380470 3.030520 7.625061 3.131433 -21.920444 -2.259414 -2.303786 -46.293695 -17.616199 15.413064 106.431062 -82.805012 -86.044117 24.755336 -7.722254 -14.522384 20.405197 -2.691332 -4.673216 49.454329 -12.583395 17.254990 5.467884 43.596213 11.671324 -7.571089 9.831019 -4.622055 
